<?xml version="1.0" encoding="utf-8"?>
<!-- Generator: Adobe Illustrator 27.9.1, SVG Export Plug-In . SVG Version: 6.00 Build 0)  -->
<svg version="1.1" id="Layer_2_00000064320532180203997190000000106466067740983440_"
	 xmlns="http://www.w3.org/2000/svg" xmlns:xlink="http://www.w3.org/1999/xlink" x="0px" y="0px" viewBox="0 0 347 638"
	 style="enable-background:new 0 0 347 638;" xml:space="preserve">
<style type="text/css">
	.st0{fill:#FFFFFF;}
</style>
<g id="Layer_1-2">
	<path class="st0" d="M0,628c4.1-5.6,10.8-7.9,17.4-5.8c4,1.3,5.8,4.7,5.3,8.5c-0.4,3.6-2.7,6.5-7,6.4C10,636.9,3.6,638.8,0,632V628
		L0,628z"/>
	<path class="st0" d="M206.2,254.9c0-10.5,2.4-19.6,7.2-28.1c8.1-14.3,20-23.9,35.1-30.1c15-6.1,29.6-13.2,44.4-19.9
		c1.5-0.7,2.7-1.8,5-3.3c-5.3-2.4-9.9-4.5-14.6-6.3c-0.9-0.4-2.6,0.1-3.5,0.8c-14.9,12.1-32.4,19.1-50.4,26.2
		c9-11,18.1-21.9,27-32.8c-0.6-0.7-0.7-1.1-0.9-1.1c-8.8-2-15.7,0.8-20.6,8.6c-9.4,14.8-19.3,29.4-28.2,44.5
		c-9.6,16.3-12.2,34.4-11.6,53.8c10.1,0,19.8,0.6,29.5-0.2c5.5-0.5,8.2-5.4,9-10.7c0.6-4.1,2.5-5.6,6.1-5.6c1.1,0,2.1,0,3.2,0
		c8.1-0.1,12.3,5.1,10.7,13.1c-1.3,6.4-4.9,11.6-9.9,15.7c-3.3,2.7-6.6,5.4-10.1,7.9c-0.9,0.7-2.4,0.9-3.7,0.9
		c-37.5-0.2-75-0.5-112.4-0.9c-1.1,0-2.4-0.1-3.2-0.8c-3.9-3-7.9-6-11.6-9.4c-5.8-5.3-9.1-11.8-8-19.9c0.6-4.2,2.5-7.2,7.5-6.5
		c0.3,0.1,0.7,0.1,1,0c5.9-1,9.7,0.3,11.5,7.1c1.9,7.1,7.3,10.2,15.1,10c16.9-0.4,33.8-0.1,51.1-0.1V150h-16.1
		c1.1,34.7,2.2,69.2,3.4,104h-13.6c-0.5-2.6-1-5.3-1.4-8c-2.6-16.5-9.2-31.4-18.1-45.3c-9-13.9-17.9-27.8-27.1-41.6
		c-0.8-1.2-3.2-1.9-4.7-1.8c-3.1,0.3-6.1,1.3-9.2,2.1c-4.3,1.1-4.7,2.1-1.8,5.5c5.5,6.4,11.2,12.6,16.8,19c2.1,2.4,4.1,4.8,7.1,8.3
		c-3.5-1.2-5.8-1.9-7.9-2.8c-13.4-5.7-26.5-12.1-38-21.3c-2.3-1.9-4.4-2.4-7.2-1c-4.3,2.1-8.7,3.8-13.1,5.6l-0.1,1.7
		c6,3.3,11.8,6.9,17.9,9.7c13.5,6.2,27.7,11.2,40.8,18.2c20.2,10.6,30.1,28.5,33.2,51.5c-4.1,0-7.9,0.4-11.6-0.2
		c-1.5-0.3-3.1-2.7-3.7-4.5c-3.7-10.5-10.9-15.7-22.1-15.9c-5.8-0.1-11.6-0.9-17.3-1.5c-21.7-2.1-43-5.5-63.3-13.9
		c-11.3-4.7-19.7-12.1-20.9-24.8c-0.5-5.4,0.8-11.2,2.7-16.4c9.5-26,23.4-49.7,39.9-71.9c25.6-34.3,55.4-64.3,92.6-86.1
		c8.8-5.2,18.1-9.6,27.2-14.4c4.9-2.6,9.7-2.4,14.8-0.4c18.1,7.3,34.8,17,50.5,28.5c44.3,32.5,77.9,74.1,102.7,122.9
		c3.9,7.6,7.2,15.7,10,23.8c5.8,16.8-0.5,30.6-16.9,37.8c-16.1,7.1-33.2,10.4-50.4,13c-12.1,1.8-24.4,2.8-36.5,4.2
		c-10,1.1-16.1,7-17.5,17.2c-0.3,2.5-1.1,4-4,3.9C214.5,254.8,210.7,254.9,206.2,254.9L206.2,254.9z M172.6,120.8
		c13.1-0.1,23.3-9.4,23.3-21.5c0-11.2-10.1-20.7-21.9-20.6c-13.3,0.2-22.8,9-22.9,21.2C151,111.5,160.7,120.9,172.6,120.8
		L172.6,120.8z M107,112.2c0-8.2-4.6-14.1-12.2-16.1c-15.4-4-32.9,10.7-31.5,26.5c0.6,6.5,2.8,12.1,9.6,14.4
		C88.4,142.1,107.1,128.4,107,112.2L107,112.2z M267.2,137.3c10,0.2,15.6-4.7,16.3-14.1c0.8-12.2-9.9-25.4-22-27
		c-12.4-1.6-20.7,6.5-19.1,18.9C243.9,127.7,254.4,137,267.2,137.3L267.2,137.3z M173.1,23.6c-10.4,0-18.2,7.5-18.1,17.2
		c0.1,9.5,8.4,16.9,18.6,16.7c10.8-0.2,18.4-7.2,18.4-16.8C191.9,31.2,183.5,23.5,173.1,23.6L173.1,23.6z M156.6,217.3
		c1.8-23.6-6.4-45.1-13-67.1c-6.4,0.8-12.3,1.5-19.3,2.3C133.4,175.3,145.5,196,156.6,217.3z M99.5,215.2c0.2-0.5,0.4-1.1,0.5-1.6
		c-3.9-1.9-7.8-3.9-11.8-5.7C70.1,200,52,192.1,34,184.1c-2.9-1.3-7.8,1.2-9.8,5.2c-1.6,3.3,0.4,4.8,3,6.2
		c15.6,8.7,32.2,14.2,49.9,16.4C84.5,212.9,92,214.1,99.5,215.2L99.5,215.2z M222.8,153.2c-6-0.7-10.9-1.5-15.9-1.7
		c-1.2-0.1-3.2,1.6-3.6,2.9c-3.8,14.1-7.7,28.2-10.9,42.5c-1.4,5.9-1.3,12.2-1.9,18.3l1,0.1C201.8,194.8,212.1,174.4,222.8,153.2
		L222.8,153.2z M250.7,212.9c22.5-0.9,44-5.5,64.3-14.8c10.3-4.7,10.4-6.9,2.3-13C294.7,194.5,272.7,203.7,250.7,212.9z M113.6,74.2
		c7.6,0.1,13.5-5.3,13.4-12.4c-0.1-5.9-4.2-9.9-10.2-9.9c-7.1,0-13.7,6.1-13.7,12.6C103.1,69.8,107.8,74.1,113.6,74.2z M243.2,64.2
		c-0.1-6.2-6.5-11.8-13.2-11.7c-5.6,0.1-9.9,4.5-9.7,9.9c0.3,5.9,6.9,11.7,13,11.4C239.4,73.4,243.3,69.7,243.2,64.2z"/>
	<path class="st0" d="M233.3,307.4c2.9,0,4.8,0,6.6,0c13.8,0.1,24.5,10.4,25.9,24.8c1.1,12.1-8.2,24.2-20.9,26.5
		c-3.7,0.7-7.6,0.2-11.5,0.4c-2.3,0.1-4.6,0.2-7.8,0.4c0,11.6-0.1,22.9,0,34.2c0.3,30.4,7.7,59.3,19.9,87
		c6.9,15.6,17.4,29.3,30.4,40.4c6.5,5.5,6.3,7.3,3.7,15.6c-1.9,6-2.3,12.5-3.5,19.4H99.6c3.1-3.8,6.4-5.2,12-5.2
		c26.5-0.2,53-0.3,79.5-0.5c7.5-0.1,15-0.4,22.5-0.5c5.9-0.2,9.2-2.5,9.3-6.9c0.1-4.4-2.9-6.7-9.2-6.7c-42.6-0.3-85.3-0.6-127.9-0.9
		c-3.5,0-7.1,0.6-10.5-0.2c-2.8-0.6-6.3-2.3-7.4-4.5c-0.9-1.9,0.4-5.8,2-7.9c2.6-3.4,6.3-5.9,9.3-9c15.4-15.1,24.2-33.9,31.3-53.9
		c11.5-32.5,12.7-66.1,11.7-100.8c-5.1,0-10,0-14.9,0c-13.4,0-23.7-9.1-25.2-22.1c-1.5-13.8,6.9-26,19.9-28.7
		c3.4-0.7,6.9-0.9,10.8-1.4l1.2-4.9c1.7,0,3.5,0,5.3,0c23.7,0,47.3,0,71-0.2c12.3-0.1,24.6-0.5,36.9-0.7
		C231,300.9,235.3,300.6,233.3,307.4L233.3,307.4z M144,361c1.5,53.1-1,105.4-28.3,153h83.4c-0.1-1-0.1-1.5-0.3-1.9
		c-9.1-17.4-13.1-36.4-14.7-55.6c-2.1-24.7-2.6-49.5-3.6-74.2c-0.3-7,0-13.9,0-21.2H144L144,361z M173,339.6v-0.7
		c20,0,39.9,0,59.9,0c4.8,0,7.9-2.7,8-6.5c0.1-4-3.2-7-8-7.1c-8.5-0.2-16.9-0.5-25.4-0.5c-30.8,0-61.6,0.1-92.3,0.2
		c-1.3,0-2.7-0.1-4,0.2c-3.9,1-5.8,3.5-5.7,7.6c0.2,4,2.3,6.1,6.2,6.5c2.2,0.2,4.3,0.3,6.5,0.3C136.4,339.6,154.7,339.6,173,339.6
		L173,339.6z"/>
	<path class="st0" d="M173,637.2c-38,0-76,0-114,0c-2.3,0-4.7,0-7-0.1c-7.5-0.2-12-4.6-12.2-11.7c-0.2-7.1,4.5-12.6,11.5-13.2
		c2.3-0.2,4.7-0.1,7-0.2c54-0.1,108-0.1,162-0.2c12.6,0,25.3-0.5,37.9-0.8c6.7-0.2,9-1.8,9.2-6c0.1-4.4-2.9-6.6-9.2-6.7
		c-27.8-0.3-55.6-0.6-83.4-0.7c-40.2-0.1-80.3,0-120.5,0c-0.8,0-1.7,0-2.5,0c-4.5,0-8.2-1.6-10.2-5.9c-2.1-4.4-1-8.5,2-12.1
		c4.4-5.4,10.1-7.9,17-7.9c20.3-0.1,40.7-0.2,61-0.3c53.5-0.2,106.9-0.4,160.4-0.8c7.7,0,14,2.5,19.2,8c6.4,6.8,6,14.7-0.8,21.1
		c-5.9,5.5-5.8,10,0.4,15c5.5,4.5,7.1,8.8,5.4,14.3c-1.9,5.7-5.8,8.2-13.3,8.2C253,637.2,213,637.1,173,637.2L173,637.2L173,637.2z"
		/>
	<path class="st0" d="M346.8,627c-4.1-5.6-10.8-7.9-17.4-5.8c-4,1.3-5.8,4.7-5.3,8.5c0.4,3.6,2.7,6.5,7,6.4
		c5.7-0.2,12.2,1.8,15.8-5.1V627L346.8,627z"/>
</g>
</svg>
