<?xml version="1.0" encoding="utf-8"?>
<!-- Generator: Adobe Illustrator 27.9.1, SVG Export Plug-In . SVG Version: 6.00 Build 0)  -->
<svg version="1.1" id="Layer_1" xmlns="http://www.w3.org/2000/svg" xmlns:xlink="http://www.w3.org/1999/xlink" x="0px" y="0px"
	 viewBox="0 0 1920 1080" style="enable-background:new 0 0 1920 1080;" xml:space="preserve">
<style type="text/css">
	.st0{fill:#FFFFFF;}
</style>
<path class="st0" d="M787,849c0-209.33,0-418.67,0-628c115.67,0,231.33,0,347,0c0,209.67,0,419.33,0,629
	c-3.96-6.83-9.59-9.44-16.95-6.69c-2.39,0.89-4.78,4.22-5.34,6.82c-0.45,2.09,1.23,5.69,3.1,7.01c5.19,3.65,16.01,0.41,19.18-5.14
	c0,2.33,0,4.67,0,7c-115.67,0-231.33,0-347,0c0-2,0-4,0-6c3.6,6.84,10.04,4.94,15.78,5.09c4.29,0.11,6.51-2.78,6.96-6.37
	c0.47-3.82-1.36-7.19-5.34-8.48C797.79,841.08,791.14,843.39,787,849z M993.17,475.91c4.51,0,8.32-0.1,12.11,0.03
	c2.85,0.1,3.64-1.38,3.97-3.88c1.38-10.24,7.43-16.13,17.46-17.24c12.19-1.35,24.42-2.4,36.54-4.17
	c17.23-2.52,34.31-5.9,50.39-12.97c16.35-7.18,22.63-20.93,16.85-37.75c-2.79-8.13-6.06-16.17-9.96-23.82
	c-24.86-48.76-58.39-90.37-102.72-122.86c-15.68-11.49-32.43-21.2-50.51-28.51c-5.08-2.05-9.89-2.23-14.79,0.39
	c-9.05,4.83-18.35,9.23-27.2,14.41c-37.22,21.82-66.95,51.77-92.59,86.08c-16.55,22.15-30.41,45.85-39.94,71.86
	c-1.89,5.15-3.24,11.04-2.73,16.4c1.2,12.7,9.67,20.18,20.93,24.84c20.27,8.38,41.64,11.8,63.29,13.91
	c5.77,0.56,11.55,1.37,17.34,1.49c11.15,0.24,18.37,5.42,22.06,15.93c0.62,1.78,2.22,4.22,3.71,4.49c3.6,0.66,7.41,0.21,11.55,0.21
	c-3.05-23.04-13.03-40.94-33.2-51.53c-13.16-6.91-27.29-11.95-40.83-18.16c-6.16-2.82-11.96-6.42-17.92-9.68
	c0.03-0.78,0.04-0.9,0.07-1.67c4.36-1.86,8.8-3.56,13.06-5.64c2.79-1.36,4.87-0.87,7.19,0.98c11.5,9.16,24.57,15.59,38.01,21.32
	c2.14,0.91,4.38,1.55,7.9,2.78c-3.02-3.51-5.04-5.91-7.12-8.26c-5.6-6.33-11.29-12.59-16.83-18.98c-2.94-3.39-2.53-4.47,1.79-5.53
	c3.05-0.75,6.09-1.78,9.19-2.07c1.53-0.14,3.91,0.61,4.69,1.77c9.18,13.78,18.18,27.68,27.14,41.6
	c8.96,13.92,15.51,28.83,18.13,45.31c0.43,2.71,0.98,5.4,1.45,7.99h13.64c-1.13-34.82-2.24-69.34-3.36-104H968v117.87
	c-17.29,0-34.2-0.3-51.1,0.13c-7.87,0.2-13.24-2.98-15.15-10.05c-1.82-6.75-5.65-8.02-11.52-7.06c-0.32,0.05-0.66,0.05-0.98,0
	c-5.03-0.76-6.91,2.31-7.51,6.49c-1.17,8.1,2.2,14.58,7.97,19.87c3.65,3.34,7.61,6.35,11.55,9.35c0.82,0.62,2.15,0.77,3.25,0.78
	c37.48,0.32,74.96,0.61,112.45,0.86c1.24,0.01,2.74-0.18,3.69-0.86c3.47-2.5,6.81-5.19,10.12-7.91c5.01-4.12,8.54-9.26,9.88-15.68
	c1.67-8.01-2.61-13.22-10.66-13.1c-1.06,0.02-2.13-0.01-3.2-0.01c-3.6-0.01-5.58,1.51-6.13,5.57c-0.71,5.24-3.5,10.21-8.96,10.66
	c-9.67,0.79-19.44,0.22-29.5,0.22c-0.63-19.35,1.9-37.48,11.55-53.79c8.94-15.11,18.8-29.68,28.24-44.5
	c7.37-11.57,7.35-11.59,20.56-8.55c0.22,0.05,0.37,0.43,0.93,1.12c-8.96,10.86-18,21.82-27.04,32.78
	c17.93-7.1,35.5-14.12,50.35-26.21c0.85-0.7,2.55-1.18,3.49-0.81c4.67,1.82,9.22,3.96,14.56,6.32c-2.26,1.5-3.51,2.61-4.97,3.27
	c-14.75,6.73-29.37,13.79-44.37,19.94c-15.17,6.22-27.09,15.81-35.15,30.08C995.57,456.27,993.19,465.43,993.17,475.91z
	 M1020.28,528.36c1.98-6.8-2.31-6.43-6.13-6.37c-12.31,0.2-24.61,0.65-36.91,0.73c-23.66,0.16-47.33,0.12-70.99,0.17
	c-1.77,0-3.53,0-5.26,0l-1.2,4.9c-3.88,0.48-7.38,0.66-10.77,1.37c-13.06,2.75-21.46,14.96-19.93,28.72
	c1.45,13.05,11.75,22.12,25.16,22.14c4.93,0.01,9.86,0,14.92,0c0.97,34.67-0.23,68.27-11.73,100.79
	c-7.07,20-15.92,38.79-31.29,53.87c-3.08,3.03-6.77,5.56-9.35,8.95c-1.58,2.08-2.9,5.99-1.96,7.92c1.09,2.23,4.63,3.89,7.39,4.52
	c3.33,0.76,6.96,0.15,10.46,0.18c42.65,0.28,85.29,0.54,127.94,0.87c6.35,0.05,9.31,2.35,9.2,6.72c-0.1,4.31-3.36,6.72-9.27,6.87
	c-7.49,0.19-14.97,0.49-22.46,0.55c-26.49,0.22-52.99,0.35-79.49,0.52c-5.65,0.04-8.9,1.37-12.01,5.22h176.54
	c1.18-6.89,1.59-13.38,3.5-19.39c2.62-8.25,2.74-10.07-3.72-15.59c-12.99-11.07-23.5-24.79-30.37-40.42
	c-12.22-27.76-19.65-56.58-19.93-87.02c-0.1-11.27-0.02-22.54-0.02-34.17c3.2-0.16,5.49-0.31,7.78-0.38
	c3.83-0.12,7.74,0.32,11.46-0.36c12.7-2.3,22.07-14.41,20.91-26.53c-1.37-14.36-12.1-24.64-25.9-24.78
	C1025.05,528.35,1023.23,528.36,1020.28,528.36z M960,858.21c0-0.03,0-0.05,0-0.08c39.99,0,79.98,0.01,119.97-0.01
	c7.5,0,11.45-2.49,13.3-8.16c1.78-5.45,0.16-9.76-5.37-14.27c-6.16-5.02-6.28-9.48-0.39-14.97c6.8-6.35,7.19-14.23,0.76-21.07
	c-5.15-5.47-11.49-8.05-19.18-8c-53.48,0.36-106.95,0.54-160.43,0.79c-20.33,0.09-40.65,0.21-60.98,0.28
	c-6.93,0.02-12.69,2.56-17.05,7.92c-2.92,3.58-4.02,7.67-1.97,12.11c1.99,4.3,5.65,5.86,10.16,5.89c0.83,0.01,1.67,0.01,2.5,0.01
	c40.16,0,80.31-0.09,120.47,0.02c27.82,0.08,55.64,0.42,83.45,0.68c6.35,0.06,9.34,2.3,9.22,6.66c-0.11,4.19-2.47,5.81-9.16,6
	c-12.64,0.34-25.29,0.8-37.93,0.83c-53.98,0.14-107.97,0.14-161.95,0.2c-2.33,0-4.68-0.07-6.99,0.15
	c-7.02,0.66-11.72,6.12-11.54,13.24c0.18,7.06,4.71,11.42,12.16,11.67c2.33,0.08,4.66,0.1,7,0.1
	C884.02,858.22,922.01,858.21,960,858.21z"/>
<path d="M787,849c4.14-5.61,10.79-7.92,17.4-5.77c3.98,1.3,5.81,4.67,5.34,8.48c-0.44,3.59-2.66,6.49-6.96,6.37
	c-5.74-0.15-12.18,1.75-15.78-5.09C787,851.67,787,850.33,787,849z"/>
<path d="M993.17,475.91c0.02-10.47,2.4-19.64,7.2-28.14c8.06-14.27,19.98-23.86,35.15-30.08c14.99-6.15,29.61-13.21,44.37-19.94
	c1.46-0.67,2.72-1.77,4.97-3.27c-5.34-2.36-9.89-4.5-14.56-6.32c-0.94-0.36-2.63,0.12-3.49,0.81
	c-14.85,12.09-32.42,19.11-50.35,26.21c9.04-10.96,18.08-21.92,27.04-32.78c-0.56-0.69-0.71-1.07-0.93-1.12
	c-13.21-3.03-13.19-3.02-20.56,8.55c-9.44,14.82-19.3,29.39-28.24,44.5c-9.65,16.31-12.17,34.44-11.55,53.79
	c10.05,0,19.83,0.57,29.5-0.22c5.46-0.45,8.25-5.42,8.96-10.66c0.55-4.05,2.52-5.58,6.13-5.57c1.06,0,2.13,0.03,3.2,0.01
	c8.05-0.12,12.33,5.1,10.66,13.1c-1.34,6.42-4.87,11.55-9.88,15.68c-3.31,2.72-6.64,5.41-10.12,7.91c-0.95,0.69-2.45,0.87-3.69,0.86
	c-37.48-0.24-74.97-0.53-112.45-0.86c-1.1-0.01-2.44-0.15-3.25-0.78c-3.94-3-7.91-6.01-11.55-9.35c-5.77-5.29-9.14-11.77-7.97-19.87
	c0.6-4.18,2.48-7.25,7.51-6.49c0.32,0.05,0.66,0.05,0.98,0c5.88-0.96,9.7,0.32,11.52,7.06c1.91,7.07,7.28,10.24,15.15,10.05
	c16.9-0.43,33.81-0.13,51.1-0.13V371h-16.08c1.12,34.66,2.24,69.18,3.36,104h-13.64c-0.47-2.59-1.02-5.28-1.45-7.99
	c-2.62-16.48-9.17-31.38-18.13-45.31c-8.96-13.93-17.95-27.83-27.14-41.6c-0.77-1.16-3.16-1.91-4.69-1.77
	c-3.1,0.29-6.13,1.32-9.19,2.07c-4.32,1.06-4.74,2.13-1.79,5.53c5.54,6.39,11.22,12.64,16.83,18.98c2.08,2.35,4.1,4.75,7.12,8.26
	c-3.51-1.23-5.76-1.87-7.9-2.78c-13.44-5.73-26.5-12.15-38.01-21.32c-2.33-1.85-4.4-2.35-7.19-0.98c-4.26,2.08-8.7,3.78-13.06,5.64
	c-0.03,0.78-0.04,0.9-0.07,1.67c5.96,3.26,11.76,6.85,17.92,9.68c13.54,6.21,27.67,11.25,40.83,18.16
	c20.17,10.59,30.14,28.48,33.2,51.53c-4.15,0-7.95,0.44-11.55-0.21c-1.49-0.27-3.08-2.71-3.71-4.49
	c-3.68-10.51-10.91-15.69-22.06-15.93c-5.79-0.12-11.56-0.93-17.34-1.49c-21.65-2.12-43.02-5.53-63.29-13.91
	c-11.26-4.66-19.73-12.14-20.93-24.84c-0.51-5.35,0.85-11.25,2.73-16.4c9.53-26.02,23.39-49.72,39.94-71.86
	c25.64-34.3,55.37-64.26,92.59-86.08c8.84-5.18,18.14-9.58,27.2-14.41c4.9-2.62,9.71-2.44,14.79-0.39
	c18.09,7.31,34.83,17.02,50.51,28.51c44.33,32.49,77.86,74.1,102.72,122.86c3.9,7.65,7.17,15.7,9.96,23.82
	c5.78,16.82-0.5,30.56-16.85,37.75c-16.08,7.06-33.16,10.45-50.39,12.97c-12.12,1.77-24.36,2.82-36.54,4.17
	c-10.03,1.11-16.08,7-17.46,17.24c-0.34,2.5-1.13,3.99-3.97,3.88C1001.49,475.81,997.69,475.91,993.17,475.91z M959.64,341.8
	c13.12-0.07,23.26-9.41,23.3-21.47c0.04-11.16-10.13-20.71-21.93-20.57c-13.3,0.15-22.82,8.98-22.91,21.25
	C938.02,332.48,947.73,341.87,959.64,341.8z M894,333.2c-0.03-8.16-4.55-14.12-12.19-16.1c-15.41-3.99-32.93,10.7-31.5,26.52
	c0.58,6.47,2.8,12.14,9.62,14.38C875.42,363.09,894.07,349.45,894,333.2z M1054.22,358.32c9.98,0.24,15.63-4.67,16.26-14.12
	c0.82-12.25-9.9-25.38-22.04-26.98c-12.44-1.64-20.69,6.54-19.1,18.95C1030.94,348.68,1041.41,358.01,1054.22,358.32z
	 M960.13,244.57c-10.37,0.04-18.21,7.53-18.06,17.24c0.15,9.47,8.39,16.9,18.58,16.74c10.8-0.16,18.44-7.16,18.35-16.81
	C978.91,252.16,970.53,244.53,960.13,244.57z M943.59,438.26c1.76-23.65-6.4-45.08-12.98-67.05c-6.42,0.76-12.31,1.46-19.33,2.3
	C920.45,396.31,932.53,416.99,943.59,438.26z M886.46,436.21c0.18-0.53,0.36-1.06,0.54-1.59c-3.93-1.9-7.8-3.93-11.8-5.69
	c-18.07-7.97-36.17-15.84-54.24-23.8c-2.87-1.27-7.81,1.23-9.8,5.22c-1.63,3.29,0.42,4.78,2.97,6.21
	c15.57,8.73,32.17,14.25,49.9,16.45C871.53,433.96,878.98,435.15,886.46,436.21z M1009.76,374.16c-5.99-0.7-10.91-1.49-15.86-1.7
	c-1.18-0.05-3.22,1.64-3.56,2.88c-3.84,14.1-7.7,28.21-10.95,42.46c-1.36,5.95-1.29,12.22-1.87,18.34c0.34,0.02,0.68,0.03,1.02,0.05
	C988.79,415.81,999.04,395.44,1009.76,374.16z M1037.71,433.9c22.46-0.95,43.96-5.48,64.28-14.78c10.32-4.72,10.44-6.88,2.26-13.03
	C1081.69,415.52,1059.7,424.71,1037.71,433.9z M900.61,295.18c7.61,0.07,13.47-5.34,13.41-12.4c-0.05-5.89-4.17-9.93-10.16-9.93
	c-7.05,0-13.74,6.11-13.74,12.55C890.13,290.79,894.77,295.13,900.61,295.18z M1030.23,285.15c-0.13-6.18-6.46-11.8-13.17-11.69
	c-5.59,0.09-9.93,4.5-9.69,9.85c0.26,5.89,6.85,11.67,12.99,11.4C1026.45,294.44,1030.34,290.66,1030.23,285.15z"/>
<path d="M1020.28,528.36c2.95,0,4.76-0.02,6.57,0c13.79,0.15,24.53,10.43,25.9,24.78c1.15,12.12-8.22,24.23-20.91,26.53
	c-3.72,0.67-7.64,0.24-11.46,0.36c-2.29,0.07-4.58,0.22-7.78,0.38c0,11.63-0.09,22.9,0.02,34.17c0.28,30.44,7.72,59.26,19.93,87.02
	c6.88,15.62,17.39,29.34,30.37,40.42c6.46,5.51,6.34,7.34,3.72,15.59c-1.91,6.01-2.32,12.49-3.5,19.39H886.6
	c3.12-3.85,6.36-5.18,12.01-5.22c26.5-0.18,52.99-0.31,79.49-0.52c7.49-0.06,14.97-0.37,22.46-0.55c5.91-0.15,9.17-2.55,9.27-6.87
	c0.11-4.37-2.85-6.67-9.2-6.72c-42.64-0.33-85.29-0.59-127.94-0.87c-3.5-0.02-7.13,0.58-10.46-0.18c-2.76-0.63-6.3-2.29-7.39-4.52
	c-0.94-1.93,0.38-5.84,1.96-7.92c2.58-3.39,6.27-5.92,9.35-8.95c15.37-15.08,24.22-33.88,31.29-53.87
	c11.49-32.52,12.69-66.12,11.73-100.79c-5.06,0-9.99,0.01-14.92,0c-13.41-0.03-23.71-9.09-25.16-22.14
	c-1.53-13.76,6.87-25.96,19.93-28.72c3.39-0.71,6.89-0.89,10.77-1.37l1.2-4.9c1.73,0,3.49,0,5.26,0
	c23.66-0.05,47.33-0.01,70.99-0.17c12.31-0.08,24.61-0.53,36.91-0.73C1017.97,521.93,1022.26,521.57,1020.28,528.36z M931.05,582
	c1.53,53.13-1.03,105.44-28.26,153c28.16,0,55.69,0,83.37,0c-0.13-1-0.07-1.54-0.28-1.94c-9.06-17.44-13.13-36.39-14.73-55.63
	c-2.06-24.68-2.56-49.49-3.59-74.25c-0.29-6.95-0.04-13.91-0.04-21.18C955.17,582,943.62,582,931.05,582z M960,560.59
	c0-0.24,0-0.48,0-0.71c19.96,0,39.92,0.04,59.88-0.03c4.83-0.02,7.87-2.67,7.96-6.49c0.1-3.98-3.18-6.96-7.97-7.08
	c-8.48-0.22-16.95-0.51-25.43-0.51c-30.78,0.01-61.56,0.12-92.34,0.2c-1.33,0-2.72-0.12-3.97,0.21c-3.86,1.01-5.83,3.48-5.65,7.64
	c0.17,4.04,2.3,6.08,6.15,6.46c2.15,0.21,4.32,0.3,6.48,0.3C923.39,560.6,941.7,560.59,960,560.59z"/>
<path d="M960,858.21c-37.99,0-75.98,0-113.97,0c-2.33,0-4.67-0.03-7-0.1c-7.45-0.25-11.98-4.61-12.16-11.67
	c-0.18-7.13,4.52-12.59,11.54-13.24c2.32-0.22,4.66-0.14,6.99-0.15c53.98-0.06,107.97-0.06,161.95-0.2
	c12.64-0.03,25.29-0.49,37.93-0.83c6.7-0.18,9.05-1.81,9.16-6c0.12-4.37-2.87-6.6-9.22-6.66c-27.82-0.26-55.64-0.6-83.45-0.68
	c-40.16-0.11-80.31-0.02-120.47-0.02c-0.83,0-1.67,0-2.5-0.01c-4.51-0.03-8.17-1.6-10.16-5.89c-2.06-4.44-0.95-8.53,1.97-12.11
	c4.36-5.36,10.12-7.9,17.05-7.92c20.33-0.07,40.65-0.19,60.98-0.28c53.48-0.24,106.95-0.43,160.43-0.79
	c7.69-0.05,14.04,2.53,19.18,8c6.43,6.84,6.05,14.72-0.76,21.07c-5.89,5.5-5.77,9.95,0.39,14.97c5.53,4.51,7.15,8.82,5.37,14.27
	c-1.85,5.68-5.8,8.16-13.3,8.16c-39.99,0.02-79.98,0.01-119.97,0.01C960,858.16,960,858.19,960,858.21z"/>
<path class="st0" d="M959.64,341.8c-11.9,0.07-21.62-9.31-21.54-20.79c0.09-12.27,9.6-21.1,22.91-21.25
	c11.81-0.13,21.98,9.41,21.93,20.57C982.89,332.39,972.75,341.73,959.64,341.8z"/>
<path class="st0" d="M894,333.2c0.07,16.24-18.58,29.89-34.08,24.8c-6.82-2.24-9.04-7.91-9.62-14.38
	c-1.42-15.82,16.09-30.52,31.5-26.52C889.45,319.08,893.97,325.04,894,333.2z"/>
<path class="st0" d="M1054.22,358.32c-12.81-0.31-23.28-9.63-24.88-22.15c-1.58-12.41,6.66-20.6,19.1-18.95
	c12.13,1.6,22.85,14.73,22.04,26.98C1069.85,353.65,1064.2,358.56,1054.22,358.32z"/>
<path class="st0" d="M960.13,244.57c10.39-0.04,18.78,7.59,18.87,17.17c0.09,9.65-7.55,16.65-18.35,16.81
	c-10.19,0.15-18.43-7.27-18.58-16.74C941.92,252.1,949.76,244.62,960.13,244.57z"/>
<path class="st0" d="M943.59,438.26c-11.06-21.28-23.14-41.96-32.31-64.75c7.02-0.83,12.91-1.53,19.33-2.3
	C937.18,393.19,945.35,414.61,943.59,438.26z"/>
<path class="st0" d="M886.46,436.21c-7.47-1.07-14.93-2.25-22.42-3.19c-17.72-2.21-34.33-7.72-49.9-16.45
	c-2.56-1.43-4.61-2.92-2.97-6.21c1.99-3.99,6.92-6.49,9.8-5.22c18.07,7.96,36.18,15.83,54.24,23.8c3.99,1.76,7.87,3.78,11.8,5.69
	C886.82,435.16,886.64,435.69,886.46,436.21z"/>
<path class="st0" d="M1009.76,374.16c-10.71,21.28-20.97,41.65-31.22,62.03c-0.34-0.02-0.68-0.03-1.02-0.05
	c0.58-6.12,0.51-12.39,1.87-18.34c3.25-14.25,7.11-28.36,10.95-42.46c0.34-1.24,2.37-2.93,3.56-2.88
	C998.84,372.67,1003.77,373.46,1009.76,374.16z"/>
<path class="st0" d="M1037.71,433.9c21.99-9.19,43.98-18.38,66.54-27.81c8.18,6.15,8.06,8.31-2.26,13.03
	C1081.67,428.42,1060.17,432.95,1037.71,433.9z"/>
<path class="st0" d="M900.61,295.18c-5.84-0.05-10.48-4.39-10.49-9.78c0-6.43,6.69-12.55,13.74-12.55c5.99,0,10.11,4.03,10.16,9.93
	C914.08,289.84,908.22,295.25,900.61,295.18z"/>
<path class="st0" d="M1030.23,285.15c0.12,5.51-3.78,9.28-9.87,9.56c-6.14,0.27-12.73-5.51-12.99-11.4
	c-0.24-5.34,4.1-9.76,9.69-9.85C1023.77,273.35,1030.1,278.97,1030.23,285.15z"/>
<path class="st0" d="M931.05,582c12.57,0,24.12,0,36.48,0c0,7.27-0.24,14.23,0.04,21.18c1.02,24.76,1.53,49.57,3.59,74.25
	c1.6,19.24,5.67,38.19,14.73,55.63c0.21,0.4,0.15,0.94,0.28,1.94c-27.68,0-55.21,0-83.37,0C930.02,687.44,932.58,635.13,931.05,582z
	"/>
<path class="st0" d="M960,560.59c-18.3,0-36.61,0.01-54.91-0.01c-2.16,0-4.33-0.09-6.48-0.3c-3.85-0.38-5.98-2.42-6.15-6.46
	c-0.18-4.16,1.8-6.62,5.65-7.64c1.26-0.33,2.64-0.21,3.97-0.21c30.78-0.08,61.56-0.2,92.34-0.2c8.48,0,16.95,0.29,25.43,0.51
	c4.79,0.12,8.07,3.1,7.97,7.08c-0.09,3.82-3.12,6.47-7.96,6.49c-19.96,0.07-39.92,0.03-59.88,0.03C960,560.12,960,560.36,960,560.59
	z"/>
<path d="M1133.81,848c-4.14-5.61-10.79-7.92-17.4-5.77c-3.98,1.3-5.81,4.67-5.34,8.48c0.44,3.59,2.66,6.49,6.96,6.37
	c5.74-0.15,12.18,1.75,15.78-5.09C1133.81,850.67,1133.81,849.33,1133.81,848z"/>
</svg>
